<?xml version="1.0" encoding="UTF-8"?>
<!-- Generator: Adobe Illustrator 14.0.0, SVG Export Plug-In  -->
<svg xmlns="http://www.w3.org/2000/svg" xmlns:xlink="http://www.w3.org/1999/xlink" xmlns:a="http://ns.adobe.com/AdobeSVGViewerExtensions/3.0/" version="1.1" x="0px" y="0px" width="692px" height="249px" viewBox="-14.441 -13.735 692 249" xml:space="preserve">
<defs>
</defs>
<path fill="#D51317" d="M79.108,199.378c-0.076,0.143-0.131,0.296-0.164,0.448c-0.033,0.077-0.055,0.164-0.076,0.241  c-0.033,0.152-0.055,0.306-0.077,0.459c-0.022,0.219-0.055,0.317-0.098,0.339l-0.536,2.656v0.012  c-0.437-0.022-1.115,0.666-1.727,1.082c-0.875,0.558-1.739,0.743-2.405,1.541c0,0-0.023,0.012-0.056,0.044  c-0.054,0.044-0.153,0.099-0.273,0.187c0,0-0.011,0-0.022,0.012c-0.426,0.262-1.191,0.644-2.197,0.731  c-0.383,0.032-0.776,0.032-1.202-0.044c-0.022,0-0.044-0.011-0.056-0.011c-2.12-0.351-2.175-0.351-2.711,0.175h-0.011  c-0.186,0.175-0.349,0.36-0.546,0.524c-0.055,0.044-0.11,0.077-0.176,0.109c0,0.012,0,0.021-0.01,0.021h-0.022  c-1.115,0.711-1.52,0.46-2.121,0.372c-0.525-0.076-1.88,0.263-2.328,0.383c-0.099,0.033-0.154,0.044-0.154,0.044  c-0.186,0.055-0.349,0.076-0.481,0.043c-0.721-0.163,0.416-1.912-1.378-1.289c-1.246,0.426-0.94,1.082-1.016,1.618  c-0.033,0.251-0.142,0.459-0.525,0.622c-0.066,0.022-0.131,0.056-0.208,0.066c-1.246,0.328-3.422-0.438-5.018-0.339h-0.01  c-1.182,0.076-0.482,0.459-0.624,1.027c-0.022,0.131-0.098,0.273-0.251,0.416c-0.121,0.131-0.285,0.251-0.503,0.371  c-1.783,1.006-3.794,1.225-4.264,1.17c-0.47-0.055,0.077-1.344-0.962-0.656c-1.039,0.711-1.76,2.604-3.903,3.072  c-1.487,0.317-1.924-0.207-2.974-0.076h-0.022c-0.153,0.021-0.339,0.066-0.547,0.12c-0.011,0.011-0.021,0.011-0.032,0.011  c-0.361,0.109-0.81,0.296-1.356,0.58c-0.886,0.47-1.694,0.896-2.482,1.278c-0.021,0.022-0.044,0.034-0.054,0.044  c-0.744,0.361-1.465,0.7-2.187,1.006c-0.033,0.011-0.076,0.022-0.11,0.033c-0.951,0.394-1.935,0.742-2.995,1.017  c-2.656,0.7-2.482,1.476-3.586,1.65c-0.054,0.012-0.109,0.012-0.164,0.022h-0.011c-1.29,0.109-1.028-0.699-2.482,0.252  c-1.443,0.929-3.935,0.819-5.269,1.137c-0.853,0.186-0.536,0.284-1.29,0.624c-0.175,0.075-0.416,0.185-0.744,0.305  c-0.416,0.055-0.885,0.131-1.399,0.219c-0.219,0.044-0.459,0.088-0.7,0.142c-0.044,0.012-0.076,0.022-0.11,0.022  c-0.25,0.055-0.491,0.109-0.754,0.175c-0.371,0.088-0.765,0.164-1.137,0.263c-0.35,0.109-2.59,0.809-2.897,0.907  c-0.033,0.011-0.044,0.011-0.044,0.011c-1.082,0.492-2.82,1.258-3.181,1.41c-0.033,0.022-0.054,0.033-0.054,0.033  c-0.099,0.054-0.208,0.099-0.307,0.131c-0.885,0.351-1.706,0.229-2.657,0.351c-0.24,0.032-0.503,0.021-0.754-0.01  c-0.153-0.023-0.295-0.056-0.437-0.1c-1.049-0.284-1.99-1.006-2.132-1.477c-0.055-0.186-0.098-0.36-0.109-0.535  c-0.055-0.404,0.021-0.776,0.459-0.995c0.054-0.021,0.109-0.055,0.174-0.076c0.788-0.284,1.619-0.886,2.953-0.951l1.104-0.022  c0,0-0.066-0.098-0.154-0.24c-0.218-0.361-0.524-1.05,0.099-1.181c0.372-0.088,1.356-0.219,2.504-0.404  c0.022-0.012,0.043-0.022,0.076-0.022c1.017-0.196,3.214-0.754,5.631-1.454c2.284-0.863,5.936-2.241,8.265-2.82  c0.634-0.153,1.039-0.263,1.323-0.36c0.011,0,0.032-0.012,0.044-0.022c0.153-0.099,0.327-0.197,0.524-0.316  c0.558-0.296,1.225-0.624,1.958-0.952c1.082-0.47,2.295-0.918,3.421-1.202h0.022c0.307-0.065,0.613-0.131,0.908-0.175  c2.263-0.359,2.46-0.307,4.821-1.399c0.098-0.044,0.197-0.088,0.295-0.12c2.635-1.236,1.957-1.607,5.084-1.465  c2.405,0.131,1.312,0.722,3.017-0.088c0.012,0,0.022-0.011,0.033-0.022c0.503-0.229,1.279-0.59,2.449-1.126  c0.886-0.415,1.619-0.754,2.242-1.05c0.022,0,0.032-0.01,0.043-0.01c2.559-1.214,3.258-1.553,5.215-1.848  c0.295-0.044,0.645-0.099,1.017-0.143c1.377-0.164,2.066-0.492,2.646-0.864c0.885-0.546,1.498-1.191,3.739-1.585  c0.47-0.087,0.984-0.175,1.509-0.273c0.13-0.131,0.306-0.262,0.546-0.394c0.886-0.48,5.674-1.06,9.632-2.022  c0.054-0.021,0.12-0.032,0.175-0.055c2.405-0.699,5.314-2.229,6.899-1.52C78.846,199.258,78.977,199.313,79.108,199.378"></path>
<path fill="#312783" d="M230.757,170.041c-0.486,0.104-1.001,0.124-1.478,0.038h-0.009c-1.735-0.295-2.898,1.192-3.261,1.726v0.01  c-0.037,0.076-0.076,0.133-0.095,0.162c-0.01,0.019-0.01,0.028-0.01,0.028c-0.075,0.067-0.199,0.124-0.371,0.182  c-1.411,0.447-3.919,0.563-5.014,0.419c-0.038,0-0.067-0.009-0.095-0.02c0,0-0.039-0.009-0.115-0.027c-0.01,0.009-0.01,0-0.019,0  c-0.382-0.067-1.507-0.238-1.916-0.029c-0.496,0.258-3.213-0.218-4.386,0.867c-1.029,0.955-2.964,1.659-3.432,1.821  c-0.037,0.02-0.066,0.028-0.085,0.038c-1.001,0.419-2.88-0.715-4.948-0.781c-2.593-0.077-2.812-0.43-3.355,1.954  c-0.544,2.384-2.403-1.583-4.3,1.249c-0.334,0.495-0.515,0.695-0.6,0.695c0,0-0.716-0.028-0.353-1.001  c0.353-0.935-0.62-1.83-1.678-0.42c0.438,0.782,0.677,1.573-1.401,1.879c-3.899,0.581-3.69,0.839-3.823-0.228  c-0.133-1.05-1.764-0.907-2.956,0.694c-0.781,1.039-2.392,1.773-3.069,1.773h-0.01c-0.047,0-0.085,0-0.123-0.009  c-0.897-0.086-0.162-2.051-0.554-1.546c-0.399,0.524-1.887,0.62-1.887,0.62v-0.01c-0.706,0.124-0.648-0.553-2.031,0.096  c-1.744,0.84-2.049,1.449-3.593,0.314c-1.535-1.115-1.564,1.077-2.412,1.363c-0.82,0.305-2.117-0.486-2.336-0.696  c-0.153-0.114-0.476-0.028-0.801-0.171c-0.009,0-0.009-0.01-0.019-0.01c-1.029-0.381-2.316,0.152-2.469,0.21h-0.009  c-0.496,0.477-0.887,0.81-0.887,0.81c-3.241,1.869-5.3,1.669-7.159,1.621c-1.888-0.038-4.194,1.382-5.176,2.136  c-0.973,0.753-0.744-0.571-0.725-1.573c0.028-1.011-1.869-0.429-4.099,1.696c-0.639,0.61-1.23,0.963-1.745,1.116  c0,0-0.105,0.028-0.305,0.066c-0.524,0.114-1.745,0.305-3.594,0.219c-0.905-0.047-1.506,0.077-1.964,0.238  c-0.114,0.058-0.229,0.125-0.333,0.22c-0.677,0.544-2.212,0.677-3.309,1.135c-1.087,0.447-1.42,0.066-2.716-0.19  c-1.297-0.229-1.497,1.687-2.212,1.763c-0.724,0.067-1.267-0.094-3.251,0.878c-1.982,0.962-3.622,0.343-4.404,1.258  c-0.791,0.915-2.698,0.791-2.64,0.162c0.056-0.629-1.049-0.2-2.393,0.41c-1.335,0.61-2.86,1.678-2.498,0.877  c0.353-0.811-1.029-0.324-1.849,0.2s-3.423,2.002-3.356,0.915c0.076-1.096-0.991-0.028-2.326,1.001  c-1.344,1.011-1.563-0.563-2.135,0.258c-1.345,2.307-1.945,1.067-3.308,1.01c-1.383-0.057-3.213,1.955-3.347,1.201  c-0.133-0.753-0.667-0.599-1.486-0.4c-0.83,0.21,0.066,1.259-0.268,1.507c-0.304,0.209-1.573-1.106-5.214,0.343  c-0.095,0.048-0.191,0.086-0.296,0.134c-1.783,0.839-4.623,2.889-6.52,2.24h-0.01c-0.476-0.162-0.838-0.22-1.134-0.182  c-0.677,0.029-1.135,0.43-2.25,0.868c-0.524,0.2-1.192,0.409-2.078,0.591c-1.926,0.4-2.937,0.505-3.47,0.524  c-0.372,0.028-0.515,0-0.572-0.02h-0.01l-0.009-0.01c-0.077-0.066-0.115-0.162-0.143-0.295c-0.076-0.296-0.22-0.42-0.4-0.43v-0.009  l0.543-2.66c0.038-0.019,0.076-0.114,0.095-0.333c0.019-0.153,0.048-0.306,0.076-0.458c0.019-0.076,0.048-0.172,0.077-0.248  c0.047-0.152,0.095-0.295,0.162-0.448c0.372-0.877,1.039-1.62,1.696-2.135c0.944-0.743,4.271-0.743,7.16-1.525  c2.888-0.772,4.032,0,5.071-0.172c1.04-0.162,1.516-0.725,3.423-1.001c1.935-0.286,1.973-1.658,4.251-2.088  c2.307-0.429,1.059,0.868,4.281-0.4c3.212-1.248,3.241,0.268,4.671-1.02c1.42-1.277,3.184-1.43,6.12-2.088  c2.946-0.648,4.081-1.906,4.748-2.23c0.657-0.306,1.029,0.343,1.544,0.286c0.505-0.038,0.438-0.782,1.268-0.82  c0.839-0.028,2.612,1.821,4.643,0.973c2.021-0.83,4.861-1.297,6.406-1.23c1.535,0.067,1.506-0.915,2.507-1.048  c1.001-0.172,2.297-0.639,3.546-1.287c1.239-0.639,1.048,0.104,2.584,0.219c1.535,0.114,0.819,0.029,2.231-1.705  c1.41-1.717,2.373-0.563,3.25-1.154c0.868-0.601,1.325-0.305,3.766-0.2c2.431,0.104,1.544-0.486,3.594-0.477  c2.068,0.02,4.166-0.925,6.615-0.973c2.431-0.057,2.526,0.334,4.405-0.801c0.362-0.22,0.677-0.362,0.943-0.458  c0,0,0.134-0.047,0.344-0.095c0.362-0.096,0.943-0.2,1.477-0.114c0.83,0.134,0.944,0.105,1.974-0.096  c0.009,0,0.029-0.008,0.038-0.008c0.495-0.116,1.049-0.154,1.63-0.021c1.906,0.439,2.288-1.382,4.204-1.726  c1.887-0.324,3.394-1.563,6.244-1.335c2.86,0.22,4.185-1.582,4.852-1.277c0.658,0.306,4.462,0.687,4.662-0.028  c0.2-0.734,2.431-1.659,3.461-1.525c1.029,0.133,2.926-1.888,7.054-1.039c4.128,0.858,4.214-0.534,6.74-0.314  c2.526,0.229,6.721-1.135,8.379-1.506c1.65-0.372,3.308,0.257,4.367,0.838c1.077,0.572,3.975-1.096,3.689-1.268  c-0.296-0.171-0.496-1.201,1.449-0.533c1.954,0.667,3.127-0.382,3.975-0.305c0.715,0.047,1.402,0.104,1.449,0.409  C234.151,168.506,232.511,169.717,230.757,170.041"></path>
<path fill="#312783" d="M85.782,137.205c-1.353,2.476-2.371,4.331-2.971,5.404c-0.034,0.063-0.07,0.119-0.097,0.175  c-0.258,0.467-0.419,0.767-0.474,0.871c-0.014,0.021-0.014,0.028-0.021,0.035s-0.007,0.014-0.007,0.014s-3.961,8.912-5.635,18.158  c-0.564,0.732-1.164,1.513-1.338,1.729c-0.021,0.034-0.042,0.063-0.042,0.063c-3.738,5.153-7.559,9.804-11.29,13.96  c-0.014,0.021-0.02,0.028-0.042,0.042c-6.226,6.966-12.174,12.53-17.014,16.665c-0.132,0.091-0.264,0.175-0.397,0.244  c-0.118,0.07-0.237,0.14-0.362,0.202c-0.377,0.203-0.719,0.334-1.026,0.404c-0.041,0.015-0.076,0.021-0.118,0.035  c-2.65,0.614-3.549-2.099-3.731-2.824c-0.02-0.049-0.02-0.076-0.035-0.111c-0.014-0.049-0.014-0.069-0.014-0.069  c-1.973-7.231,3.32-26.407,3.487-27.014c-0.955,1.597-24.747,35.527-35.667,38.756c-6.917,2.036-15.271-8.758-1.827-43.867  c2.162-5.627,5.53-13.061,7.949-17.601c2.427-4.532,4.763-8.758,6.631-13.192c0,0,1.583-3.082,2.859-6.506  c0.021-0.049,0.049-0.14,0.091-0.286c0.502-1.22,3.361-7.154,0.467-7.405c-1.694-0.446-0.397-1.227-0.397-1.227  c3.884-1.339,17.704-2.155,8.702,14.343c-9.553,17.495-25.186,51.936-19.357,55.604h0.014c0.188,0.111,0.523-0.008,0.983-0.342  c2.978-1.716,14.03-10.997,49.564-67.318c0,0,0.029-0.042,0.056-0.111c0.224-0.355,0.468-0.727,0.691-1.081  c0.014,0,0.014-0.014,0.014-0.014c0.564-0.99,1.387-2.545,2.099-4.464c0.021-0.048,0.055-0.138,0.09-0.277  c0.223-0.642,0.614-1.834,0.781-2.985c0-0.006,0.007-0.006,0.007-0.021v-0.028c0.028-0.201,0.049-0.403,0.063-0.599v-0.008v-0.042  c0.021-1.646-1.129-2.092-1.276-2.141c-1.604-0.787,0.139-1.45,0.139-1.45c3.884-1.324,16.108-1.987,8.696,14.357  c-1.995,4.38-2.42,5.251-4.637,9.895c0,0.008-0.014,0.028-0.022,0.042c-0.515,1.283-1.066,2.636-1.617,4.031v0.014  c-3.445,7.984-5.906,14.371-7.656,19.489s-2.79,8.961-3.375,11.841c0,0-1.234,5.801-0.823,7.691  c0.007,0.083,0.028,0.153,0.049,0.216c0.007,0.014,0.007,0.027,0.014,0.035c0.034,0.097,0.083,0.188,0.146,0.244  c0.021,0.027,0.056,0.034,0.084,0.048c0.042,0.022,0.084,0.042,0.139,0.056l0.007,0.008c0.007,0,0.014-0.008,0.014-0.008  c2.064,0.349,10.599-9.817,17.621-18.715c0,0,0.007-0.015,0.021-0.035c0.432-0.635,6.715-9.826,9.135-13.807  c0,0,0-0.007,0.007-0.007C85.399,137.875,85.622,137.498,85.782,137.205"></path>
<path fill="#D51317" d="M85.782,137.205c-1.353,2.476-2.371,4.331-2.971,5.404c0.495-0.913,1.284-2.363,2.316-4.281  c0,0,0-0.007,0.007-0.007C85.399,137.875,85.622,137.498,85.782,137.205"></path>
<path fill="#312783" d="M232.962,17.953c-28.387,4.615-54.822,10.668-79.144,18.59c-1.96,4.504-3.968,8.98-5.453,12.251  c-0.084,0.202-0.174,0.404-0.265,0.593c-0.139,0.328-0.293,0.648-0.432,0.977c-0.377,0.809-0.691,1.513-0.949,2.057  c-0.07,0.161-0.146,0.335-0.223,0.495c-0.146,0.349-0.272,0.601-0.341,0.754c-0.028,0.063-0.063,0.111-0.084,0.174  c-9.337,20.062-20.585,39.244-22.851,43.296c-0.341,0.62-0.892,1.589-1.59,2.873c-0.16,0.271-0.32,0.564-0.495,0.879  c-0.529,0.955-1.115,2.028-1.778,3.221c-0.251,0.461-0.502,0.935-0.767,1.423c-0.997,1.813-2.092,3.835-3.256,6.031  c-0.335,0.621-0.67,1.248-1.012,1.897c-0.034,0.048-0.063,0.111-0.09,0.174c-0.314,0.586-0.627,1.186-0.941,1.792  c-0.356,0.669-0.712,1.346-1.067,2.036c-0.356,0.648-0.698,1.317-1.046,2.001c-0.008,0.028-0.028,0.056-0.049,0.098  c-0.404,0.774-0.809,1.563-1.221,2.364c-0.139,0.293-0.292,0.578-0.446,0.871c-0.279,0.544-0.564,1.095-0.836,1.653  c-0.091,0.194-0.196,0.376-0.286,0.564c-0.551,1.088-1.102,2.189-1.66,3.305c-0.216,0.426-0.432,0.872-0.649,1.312  c-0.655,1.318-1.303,2.643-1.938,3.981c-0.216,0.446-0.425,0.893-0.641,1.339c-0.614,1.276-1.214,2.56-1.807,3.835  c-0.048,0.098-0.097,0.209-0.146,0.314c-2.454,5.292-4.756,10.585-6.673,15.508c-0.314,0.821-0.628,1.632-0.921,2.434  c-0.013,0.021-0.076,0.182-0.167,0.46c-0.028,0.091-0.07,0.202-0.111,0.313c-0.684,2.058-2.413,7.629-1.821,10.349v0.021v0.007  c0.049,0.481,0.391,3.257,1.458,5.662c1.011,2.302,2.664,4.254,5.32,3.557c0.133-0.042,0.258-0.083,0.391-0.118  c-1.025,0.982-2.05,1.875-3.061,2.663c-2.964,2.329-5.823,3.779-8.389,3.821c-0.021,0.015-0.042,0.015-0.063,0.015h-0.077  c-0.083,0-0.16,0-0.243-0.015c-12.412-0.293-11.032-17.844-10.634-21.316c0.007-0.104,0.021-0.195,0.028-0.28  c0.02-0.207,0.041-0.319,0.041-0.319c1.674-9.246,5.635-18.158,5.635-18.158s0-0.007,0.006-0.014  c0.008-0.007,0.008-0.014,0.022-0.035c0.055-0.104,0.216-0.404,0.474-0.871c0.035-0.056,0.069-0.112,0.097-0.175  c0.6-1.073,1.618-2.929,2.971-5.404c-0.16,0.293-0.383,0.67-0.649,1.116c8.445-15.676,33.206-62.214,46.643-93.851  c-2.189,0.864-4.365,1.75-6.513,2.657L103.8,57.051c-17.816,8.542-27.097,21.107-21.24,22.822  c-3.159,0.781-10.801-1.297-12.963-7.566c-3.005-8.827,17.336-19.929,38.791-28.129l21.31-7.098  c1.931-0.593,3.898-1.186,5.899-1.771c2.532-6.262,6.171-15.725,6.464-19.058v-0.014c0.837-5.928-3.34-5.871-5.683-5.39  c-0.028,0-0.056,0.007-0.09,0.021c-0.426,0.098-0.872,0.223-1.346,0.349c0,0,0.104-0.14,0.307-0.384  c0.056-0.069,0.118-0.153,0.209-0.244c2.273-2.803,12.44-13.827,22.662-9.657c0.189,0.076,0.384,0.16,0.544,0.25  c0.042,0.015,0.07,0.028,0.105,0.05c1.318,0.62,2.824,1.868,3.528,4.399c0.035,0.168,0.077,0.328,0.119,0.502  c0.042,0.188,0.084,0.391,0.111,0.607c0.021,0.118,0.042,0.251,0.049,0.376c0.307,2.399-0.139,6.688-2.043,12.608  c0,0.013-0.014,0.033-0.014,0.041c-0.474,1.82-1.925,5.522-3.731,9.846c25.954-6.415,54.299-11.43,76.028-12.266  C234.496,17.346,235.381,17.555,232.962,17.953"></path>
<path fill="#D51317" d="M188.662,135.469c-11.881,9.372-22.376,15.258-22.376,15.258c-6.827,3.766-13.542,5.689-20.138,6.107  c-5.529-0.3-7.768-4.804-8.479-10.063v-0.055c-1.074-13.479,3.947-24.838,8.995-32.634c0.132-0.223,0.293-0.446,0.446-0.67  c0.021-0.035,0.028-0.056,0.049-0.084c2.74-3.946,5.739-7.439,8.716-10.474c0.035-0.027,0.056-0.042,0.056-0.042  c3.005-3.047,5.997-5.626,8.668-7.711h0.006c0.105-0.091,0.795-0.67,1.855-1.423c0.049-0.028,0.105-0.069,0.154-0.098  c4.197-2.922,13.736-8.193,16.825,1.632c0.154,0.488,0.3,1.004,0.419,1.569c0,0,0.014,0.034,0.021,0.083  c0,0.021,0,0.042,0.007,0.063c0.104,0.614,0.523,3.117,0.223,5.16c-0.021,0.182-0.049,0.356-0.091,0.523  c0,0.042-0.006,0.069-0.021,0.111c-0.048,0.215-0.097,0.426-0.146,0.628c-0.056,0.265-0.077,0.502-0.077,0.704  c0,1.318,0.53,1.974,1.576,1.974c0.941,0,1.995-0.517,3.152-1.541v-0.008c0.042-0.014,0.063-0.042,0.084-0.069  c0.292-0.265,0.543-0.53,0.829-0.795c14.476-14.1,10.941-23.248,10.028-25.062c-0.035-0.049-0.056-0.118-0.091-0.181  c0-0.007,0-0.007-0.014-0.021c-0.028-0.07-0.063-0.112-0.07-0.119c-0.731-1.555-1.917-2.747-3.528-3.604  c-0.224-0.105-0.446-0.217-0.676-0.321c-11.736-5.397-25.194,3.313-26.303,4.045c-0.041,0.021-0.062,0.041-0.069,0.041  c-0.879,0.523-1.764,1.095-2.643,1.716c-0.042,0.027-0.098,0.056-0.147,0.091c-11.282,7.195-22.787,19.343-31.559,34.355  c-0.97,1.632-1.883,3.264-2.727,4.875c-0.098,0.195-0.202,0.396-0.314,0.599c0.091-0.175,0.181-0.354,0.272-0.536  c-7.44,11.973-20.047,32.611-29.392,43.449c-0.055,0.063-0.118,0.132-0.181,0.202c-0.132,0.174-0.272,0.335-0.432,0.501  c-0.153,0.161-0.293,0.314-0.425,0.475c0,0-0.014,0.007-0.021,0.028c-0.021,0.021-0.049,0.063-0.105,0.111  c-0.028,0.035-0.07,0.084-0.111,0.126c-0.356,0.411-1.102,1.255-2.037,2.147c-0.244,0.229-0.495,0.474-0.759,0.711  c-0.14,0.11-0.286,0.23-0.426,0.355c-0.216,0.182-0.425,0.356-0.642,0.517l-0.02,0.021c-0.007,0.007-0.028,0.021-0.035,0.028  c-0.105,0.091-0.202,0.174-0.314,0.244c-0.014,0.007-0.034,0.021-0.042,0.027c-0.021,0.021-0.041,0.035-0.063,0.056  c-1.408,0.983-2.845,1.611-3.89,1.061c-0.084-0.042-0.154-0.091-0.217-0.14c-0.091-0.07-0.174-0.16-0.244-0.251  c-0.056-0.084-0.118-0.175-0.167-0.279c-0.042-0.076-0.084-0.16-0.112-0.251v-0.007c-0.034-0.077-0.056-0.133-0.076-0.216  c-0.014-0.063-0.035-0.133-0.056-0.217c0.048,0.481,0.39,3.257,1.457,5.662c1.011,2.302,2.664,4.254,5.32,3.557  c0.133-0.042,0.259-0.083,0.391-0.118c0.349-0.335,0.705-0.69,1.06-1.047c0.795-0.78,1.576-1.604,2.357-2.461  c0.279-0.307,0.564-0.635,0.837-0.948c5.99-6.792,11.659-15.299,15.27-21.052c0.21-0.349,0.412-0.669,0.607-0.983  c1.967-3.193,3.194-5.334,3.306-5.536c-0.698,2.154-6.437,20.57,11.519,23.798h0.007c0.042,0.015,0.14,0.021,0.314,0.057  c0.042,0,0.083,0.007,0.132,0.021c0.063,0.021,0.126,0.027,0.195,0.034c0.07,0.021,0.14,0.035,0.209,0.042  c0.133,0.021,0.272,0.042,0.419,0.063c0.739,0.119,1.603,0.195,2.601,0.217c0.321,0.007,0.614,0.007,0.935,0.007  c0.055,0.007,0.104,0.007,0.153,0.007c0.021-0.007,0.042-0.007,0.07-0.007c1.004-0.021,2.133-0.104,3.367-0.265  c6.708-0.475,16.806-2.504,27.892-9.226c0.008,0,0.008-0.008,0.015-0.008c0.013,0,0.013-0.014,0.021-0.014  c0.983-0.537,2.028-1.123,3.102-1.785c5.733-3.507,15-9.519,18.416-12.112c0.126-0.09,0.279-0.216,0.433-0.334  c0.104-0.07,0.195-0.154,0.285-0.202c0.538-0.426,1.081-0.761,1.583-1.116c1.681-1.186,3.417-1.701,4.763-1.736  c0.182,0.021,0.579,0.056,1.004,0.174c0,0,0.028,0.015,0.077,0.021c0.321,0.118,1.429,0.586,1.534,1.701  c0.007,0.035,0.007,0.063,0.007,0.091c0.014,0.056,0.021,0.104,0.042,0.153c0,0.015,0.014,0.021,0.014,0.021  c0.202,0.738,0.837,0.773,1.318,0.551c0.028-0.015,0.209-0.126,0.272-0.175c0.732-0.6,1.757-2.614,2.503-4.281l0.014-0.007  c0.384-0.852,0.697-1.611,0.872-2.036c0.034-0.084,0.055-0.153,0.09-0.216c0.028-0.063,0.049-0.112,0.049-0.119v-0.021v-0.013  C211.82,125.707,199.576,126.851,188.662,135.469 M122.474,145.085c0,0,0,0.007-0.014,0.014c0,0.015-0.02,0.056-0.028,0.112  c-0.013,0.014-0.013,0.02-0.013,0.034c0,0-0.014,0.008-0.07,0.042c0.035-0.057,0.063-0.111,0.091-0.167  C122.53,144.708,122.565,144.688,122.474,145.085"></path>
<path fill="#F7A600" d="M261.518,149.263v1.276c4.247,0.695,6.968,0.816,9.187,0.129v-1.338  C268.525,150.156,265.909,150.01,261.518,149.263"></path>
<path fill="#F7A600" d="M261.518,162.284v1.272c2.361,0.257,3.057,0.787,3.247,1.022c0.074,0.092,0.085,0.153,0.086,0.177  l-0.047,0.112l0.016,0.126c-0.196,0.392-1.694,1.029-3.302,1.423v1.292c1.639-0.367,3.575-1.04,4.255-1.886  c0.24-0.299,0.307-0.58,0.31-0.796c0.047-0.223,0.067-0.617-0.207-1.06C265.321,163.075,263.888,162.524,261.518,162.284"></path>
<path fill="#F7A600" d="M262.5,158.665c-0.337-0.06-0.66-0.11-0.982-0.16v1.281c0.252,0.04,0.5,0.078,0.762,0.125  c5.833,1.037,6.021,4.425,6.021,4.853c0,0.018,0,0.03-0.001,0.037l-0.001,0.021v0.023c0.029,1.429-0.459,2.563-1.494,3.466  c-1.289,1.125-3.272,1.719-5.287,1.997v0.917h1.957c1.568-0.38,3.048-0.992,4.156-1.958c1.312-1.144,1.959-2.625,1.929-4.429  C269.573,164.391,269.534,159.916,262.5,158.665"></path>
<path fill="#F7A600" d="M261.518,153.999v1.291c3.082,0.389,6.239,0.572,9.187,0.346v-1.271  C267.789,154.592,264.609,154.395,261.518,153.999"></path>
<path fill="#DF7A0D" d="M261.518,139.57v1.266c3.944,0.309,6.745-0.134,9.187-1.264v-1.415  C268.264,139.416,265.526,139.899,261.518,139.57"></path>
<path fill="#DF7A0D" d="M261.518,134.893v1.271c3.907,0.166,6.907-0.105,9.187-0.567v-1.308  C268.497,134.765,265.507,135.064,261.518,134.893"></path>
<path fill="#DF7A0D" d="M261.518,145.474c1.032,0.049,4.934,0.215,9.187,0.228v-1.265c-4.309-0.014-8.265-0.187-9.187-0.229V145.474  z"></path>
<path fill="#DF7A0D" d="M261.518,129.729v1.271c2.872,0.25,6.167,0.095,9.187-0.202v-1.281  C267.665,129.821,264.346,129.984,261.518,129.729"></path>
<path fill="#E94F35" d="M261.518,124.959c1.166,0.124,2.104,0.312,2.676,0.578c1.315,0.614,3.861,1.344,6.511,2.013v-1.307  c-2.474-0.63-4.794-1.3-5.981-1.854c-0.716-0.334-1.847-0.558-3.206-0.7V124.959z"></path>
<path fill="#E94F35" d="M270.704,115.795c-0.206-0.026-0.424-0.053-0.61-0.075c0.182-0.048,0.391-0.096,0.61-0.145v-1.296  c-2.808,0.581-3.195,1.228-3.34,1.477l-0.475,0.818l0.934,0.128c0.176,0.024,1.248,0.17,2.881,0.371V115.795z"></path>
<path fill="#E94F35" d="M261.518,121.177c1.032,0.048,4.934,0.215,9.187,0.227v-1.265c-4.309-0.013-8.265-0.186-9.187-0.229V121.177  z"></path>
<path fill="#E94F35" d="M270.704,108.564c-0.657,0.1-1.171,0.215-1.485,0.35c-1.192,0.513-2.461,1.684-3.931,3.039  c-1.125,1.037-2.386,2.197-3.771,3.184v1.519c1.734-1.123,3.274-2.526,4.624-3.771c1.384-1.276,2.58-2.38,3.575-2.808  c0.213-0.092,0.55-0.174,0.988-0.247V108.564z"></path>
<path fill="#D51317" d="M261.518,98.728c3.065,1.75,6.241,2.756,9.187,3.303v-1.296c-2.967-0.572-6.153-1.616-9.187-3.468V98.728z"></path>
<path fill="#D51317" d="M270.704,94.738c-4.402-0.854-7.483-2.267-9.187-3.213v1.444c1.908,0.995,4.97,2.278,9.187,3.063V94.738z"></path>
<path fill="#D51317" d="M270.704,103.586c-2.433,0.188-4.013,0.516-4.708,0.985c-0.907,0.613-1.669,1.534-2.551,2.601  c-0.585,0.706-1.206,1.456-1.928,2.187v1.729c1.173-1.033,2.089-2.131,2.896-3.106c0.82-0.991,1.529-1.847,2.287-2.359  c0.306-0.207,1.232-0.557,4.004-0.772V103.586z"></path>
<path fill="#D51317" d="M270.704,85.896c-3.644,0.16-6.896,0.499-9.187,1.109v1.311c1.986-0.585,5.104-0.975,9.187-1.157V85.896z"></path>
<path fill="#95C11F" d="M261.518,81.388v1.299c1.285-0.297,2.397-0.553,3.174-0.694c1.023-0.188,3.236-0.341,6.013-0.467v-1.267  c-2.863,0.13-5.159,0.29-6.239,0.488C263.721,80.883,262.695,81.117,261.518,81.388"></path>
<path fill="#95C11F" d="M261.518,77.773c2.94-0.216,6.066-0.355,9.187-0.436v-1.252c-3.12,0.076-6.244,0.214-9.187,0.426V77.773z"></path>
<path fill="#95C11F" d="M261.518,72.218c2.92-0.223,6.051-0.325,9.187-0.348v-1.263c-3.131,0.022-6.26,0.123-9.187,0.342V72.218z"></path>
<path fill="#95C11F" d="M261.518,66.31v1.278c1.137-0.161,2.317-0.336,3.546-0.525c2.077-0.319,3.942-0.662,5.641-1.017V64.75  c-1.746,0.371-3.671,0.729-5.832,1.062C263.71,65.99,262.596,66.155,261.518,66.31"></path>
<path fill="#289B38" d="M261.518,46.893c4.659-0.163,7.3-1.767,9.187-3.586v-1.819c-1.866,2.101-4.208,3.967-9.187,4.139V46.893z"></path>
<path fill="#289B38" d="M261.518,51.83c3.077-0.294,6.274-1.097,9.187-2.621v-1.447c-2.873,1.635-6.087,2.496-9.187,2.805V51.83z"></path>
<path fill="#289B38" d="M261.518,61.371v1.286c0.68-0.13,1.252-0.266,1.67-0.407c2.251-0.753,5.583-1.327,7.517-1.621v-1.281  c-1.935,0.288-5.472,0.884-7.916,1.702C262.455,61.162,262.011,61.269,261.518,61.371"></path>
<path fill="#289B38" d="M270.704,55.539c-2.315-0.271-4.849-0.399-6.263-0.294l-0.189,0.015c-0.729,0.055-1.653,0.124-2.735,0.181  v1.267c1.122-0.058,2.077-0.129,2.829-0.186l0.189-0.014c1.603-0.12,4.052,0.049,6.169,0.312V55.539z"></path>
<path fill="#169FDB" d="M261.518,32.568v1.272c2.361,0.256,3.057,0.788,3.247,1.022c0.074,0.092,0.085,0.153,0.086,0.177  l-0.047,0.112l0.016,0.126c-0.196,0.391-1.694,1.029-3.302,1.423v1.292c1.639-0.367,3.575-1.04,4.255-1.887  c0.24-0.298,0.307-0.58,0.31-0.795c0.047-0.222,0.067-0.617-0.207-1.06C265.321,33.359,263.888,32.808,261.518,32.568"></path>
<path fill="#169FDB" d="M262.5,28.949c-0.337-0.061-0.66-0.11-0.982-0.16v1.28c0.252,0.041,0.5,0.079,0.762,0.126  c5.833,1.037,6.021,4.424,6.021,4.852c0,0.018,0,0.031-0.001,0.038l-0.001,0.021v0.024c0.029,1.429-0.459,2.563-1.494,3.466  c-1.289,1.125-3.272,1.719-5.287,1.998v1.271c2.247-0.289,4.55-0.951,6.113-2.313c1.312-1.145,1.959-2.625,1.929-4.43  C269.573,34.675,269.534,30.199,262.5,28.949"></path>
<path fill="#169FDB" d="M270.704,26.294c-1.054-0.008-1.994-0.062-2.758-0.183c-0.343-0.054-0.666,0.183-0.72,0.527  c-0.004,0.033-0.007,0.066-0.007,0.099c0,0.307,0.222,0.575,0.532,0.625c0.825,0.129,1.829,0.189,2.953,0.197V26.294z"></path>
<path fill="#169FDB" d="M270.704,21.919c-0.37,0.021-0.731,0.036-1.072,0.046c-2.428,0.065-4.291-0.181-5.936-0.397  c-0.756-0.1-1.471-0.193-2.179-0.25v1.271c0.647,0.055,1.309,0.143,2.015,0.234c1.691,0.224,3.607,0.476,6.134,0.408  c0.331-0.01,0.681-0.025,1.038-0.044V21.919z"></path>
<path fill="#312783" d="M261.518,15.264v1.291c3.082,0.388,6.239,0.572,9.187,0.345v-1.271  C267.789,15.856,264.609,15.658,261.518,15.264"></path>
<path fill="#312783" d="M261.518,9.81v1.276c4.247,0.695,6.968,0.816,9.187,0.129V9.877C268.525,10.703,265.909,10.557,261.518,9.81  "></path>
<path fill="#312783" d="M261.518,5.405V6.67c3.944,0.309,6.745-0.134,9.187-1.264V3.992C268.264,5.251,265.526,5.733,261.518,5.405"></path>
<path fill="#312783" d="M261.518,0.604v1.271c3.907,0.167,6.907-0.105,9.187-0.567V0C268.497,0.476,265.507,0.775,261.518,0.604"></path>
<polygon fill="#312783" points="299.536,63.569 327.399,63.569 327.399,69.295 316.628,69.295 316.628,106.199 310.505,106.199   310.505,69.295 299.536,69.295 "></polygon>
<path fill="#312783" d="M332.785,106.199v-42.63h26.161l-0.311,5.754h-19.927v12.5h17.603l-0.397,5.499h-17.206v13.123h20.494  l-0.312,5.754H332.785z M348.771,51.58h7.426l-8.985,9.155h-4.847L348.771,51.58z"></path>
<path fill="#312783" d="M363.906,85.281c0-2.399,0.208-4.639,0.624-6.718c0.434-2.173,1.095-4.176,1.984-6.009  c0.925-1.89,2.031-3.524,3.316-4.903c1.323-1.398,2.938-2.494,4.847-3.288c1.927-0.794,4.054-1.19,6.377-1.19  c1.06,0,2.164,0.132,3.317,0.396c1.076,0.246,2.229,0.662,3.457,1.247c1.209,0.568,2.39,1.389,3.543,2.466  c1.152,1.077,2.183,2.334,3.09,3.771l-4.619,3.344c-2.494-3.571-5.461-5.356-8.9-5.356c-3.289,0-5.906,1.502-7.851,4.507  c-1.947,2.985-2.92,6.878-2.92,11.678c0,3.023,0.463,5.744,1.389,8.163c0.945,2.457,2.229,4.375,3.855,5.754  c1.625,1.38,3.457,2.069,5.498,2.069c4.025,0,7.285-1.938,9.779-5.811l4.648,3.316c-1.172,2.003-2.561,3.638-4.166,4.903  c-1.588,1.265-3.204,2.154-4.848,2.664c-1.625,0.511-3.297,0.766-5.016,0.766c-2.363,0-4.498-0.407-6.406-1.219  c-1.947-0.832-3.581-1.938-4.904-3.316c-1.323-1.38-2.457-3.014-3.401-4.903c-0.926-1.871-1.607-3.846-2.041-5.925  c-0.416-2.021-0.624-4.177-0.624-6.462L363.906,85.281z"></path>
<path fill="#312783" d="M401.973,63.598h5.13l13.209,21.882l1.275,2.126c0.378,0.643,0.766,1.295,1.162,1.956s0.794,1.342,1.19,2.04  c0.396,0.699,0.713,1.247,0.949,1.645c0.236,0.396,0.393,0.643,0.468,0.736h0.142V63.569h5.952v42.63h-5.045  c-0.038-0.057-1.03-1.7-2.976-4.932c-1.966-3.232-4.12-6.803-6.463-10.715c-1.19-1.965-2.178-3.618-2.962-4.96  c-0.784-1.341-1.385-2.371-1.8-3.089c-0.737-1.229-1.45-2.447-2.141-3.657c-0.689-1.209-1.355-2.428-1.998-3.656h-0.142  c0.019,1.19,0.033,2.287,0.043,3.288c0.009,1.002,0.014,1.918,0.014,2.749v24.972h-5.98L401.973,63.598z"></path>
<rect x="440.379" y="63.569" fill="#312783" width="6.436" height="42.63"></rect>
<path fill="#312783" d="M454.041,85.281c0-2.399,0.207-4.639,0.623-6.718c0.435-2.173,1.096-4.176,1.984-6.009  c0.926-1.89,2.031-3.524,3.316-4.903c1.322-1.398,2.938-2.494,4.848-3.288c1.926-0.794,4.052-1.19,6.376-1.19  c1.059,0,2.164,0.132,3.316,0.396c1.077,0.246,2.229,0.662,3.458,1.247c1.209,0.568,2.39,1.389,3.543,2.466  c1.152,1.077,2.183,2.334,3.09,3.771l-4.62,3.344c-2.494-3.571-5.461-5.356-8.9-5.356c-3.288,0-5.905,1.502-7.852,4.507  c-1.946,2.985-2.919,6.878-2.919,11.678c0,3.023,0.464,5.744,1.389,8.163c0.944,2.457,2.229,4.375,3.854,5.754  c1.625,1.38,3.458,2.069,5.499,2.069c4.025,0,7.285-1.938,9.779-5.811l4.648,3.316c-1.172,2.003-2.561,3.638-4.167,4.903  c-1.587,1.265-3.203,2.154-4.847,2.664c-1.625,0.511-3.298,0.766-5.017,0.766c-2.362,0-4.498-0.407-6.406-1.219  c-1.946-0.832-3.581-1.938-4.903-3.316c-1.322-1.38-2.457-3.014-3.401-4.903c-0.926-1.871-1.606-3.846-2.041-5.925  c-0.416-2.021-0.623-4.177-0.623-6.462L454.041,85.281z"></path>
<path fill="#312783" d="M503.36,63.569h5.641c1.152,2.816,2.201,5.509,3.146,8.078l12.67,34.552h-6.547l-3.714-10.176h-16.893  l-3.799,10.176h-6.094L503.36,63.569z M512.771,90.524c-0.794-2.15-1.422-3.858-1.885-5.122c-0.464-1.264-0.771-2.094-0.922-2.49  l-3.854-10.953h-0.113c-0.662,1.943-1.187,3.486-1.573,4.628c-0.388,1.142-0.647,1.892-0.779,2.25l-4.167,11.688H512.771z"></path>
<path fill="#312783" d="M543.409,63.654h9.553c1.36,0,2.66,0.057,3.897,0.17s2.424,0.294,3.558,0.539  c2.211,0.473,4.279,1.257,6.207,2.353c1.89,1.059,3.486,2.418,4.79,4.081c1.322,1.663,2.334,3.704,3.033,6.123  c0.718,2.476,1.077,5.253,1.077,8.333c0,3.987-0.766,7.567-2.296,10.742c-1.531,3.175-3.723,5.669-6.576,7.483  c-2.872,1.813-6.16,2.721-9.863,2.721h-13.322L543.409,63.654z M555.598,100.53c1.625,0,3.231-0.312,4.819-0.936  c1.587-0.623,3.061-1.53,4.421-2.721c1.361-1.19,2.467-2.749,3.316-4.677c0.851-1.928,1.275-4.063,1.275-6.406  c0-5.706-1.36-9.863-4.081-12.471c-2.721-2.608-6.774-3.912-12.16-3.912h-3.741v31.122H555.598z"></path>
<polygon fill="#312783" points="582.44,63.569 608.603,63.569 608.29,69.323 588.364,69.323 588.364,81.823 605.966,81.823   605.569,87.322 588.364,87.322 588.364,100.445 608.857,100.445 608.546,106.199 582.44,106.199 "></polygon>
<path fill="#312783" d="M301.69,150.218c0-1.209,0.057-2.381,0.17-3.515c0.114-1.134,0.274-2.239,0.482-3.316  c0.415-2.116,1.086-4.129,2.013-6.037c0.906-1.871,2.012-3.486,3.315-4.847c1.305-1.361,2.91-2.438,4.819-3.231  c1.889-0.794,3.987-1.19,6.293-1.19c2.343,0,4.695,0.576,7.057,1.729c2.4,1.172,4.374,3.015,5.924,5.527l-3.684,2.664  c-2.419-3.495-5.556-5.243-9.411-5.243c-2.476,0-4.611,0.774-6.406,2.324c-1.814,1.568-3.174,3.646-4.081,6.235  c-0.907,2.607-1.361,5.556-1.361,8.844c0,3.193,0.492,6.085,1.474,8.673c1.001,2.627,2.4,4.697,4.195,6.208  c1.814,1.529,3.864,2.296,6.151,2.296c4.459,0,7.908-1.899,10.345-5.697l3.685,2.636c-1.039,1.776-2.343,3.26-3.911,4.45  c-1.55,1.172-3.118,2.003-4.705,2.494c-1.55,0.472-3.203,0.709-4.961,0.709c-2.305,0-4.421-0.397-6.349-1.191  c-1.908-0.793-3.533-1.87-4.875-3.23c-1.342-1.36-2.475-2.977-3.401-4.847c-0.945-1.871-1.626-3.855-2.041-5.953  c-0.435-2.136-0.652-4.317-0.652-6.547L301.69,150.218z"></path>
<path fill="#312783" d="M337.318,149.85c0-2.136,0.218-4.262,0.652-6.378c0.416-2.06,1.068-4.024,1.956-5.896  c0.888-1.89,1.965-3.524,3.231-4.903c1.266-1.38,2.825-2.485,4.677-3.316c1.814-0.813,3.827-1.219,6.037-1.219  c2.626,0,5.008,0.595,7.143,1.785c2.116,1.19,3.845,2.797,5.187,4.818c1.323,2.022,2.343,4.318,3.061,6.888  c0.718,2.608,1.077,5.339,1.077,8.191c0,1.626-0.113,3.241-0.34,4.848c-0.113,0.813-0.255,1.635-0.425,2.466  c-0.17,0.832-0.378,1.672-0.623,2.522c-0.473,1.682-1.144,3.26-2.013,4.733c-0.832,1.417-1.842,2.721-3.033,3.911  c-1.172,1.172-2.617,2.079-4.336,2.722c-1.758,0.661-3.657,0.992-5.698,0.992c-2.003,0-3.854-0.313-5.555-0.936  c-1.72-0.624-3.165-1.483-4.337-2.579c-1.19-1.096-2.22-2.353-3.089-3.771c-0.87-1.379-1.559-2.938-2.069-4.677  c-0.265-0.85-0.487-1.7-0.666-2.551c-0.18-0.851-0.336-1.7-0.468-2.551s-0.227-1.705-0.284-2.565  c-0.056-0.859-0.085-1.743-0.085-2.65V149.85z M342.393,150.02c0,0.604,0.019,1.204,0.057,1.8c0.037,0.595,0.094,1.195,0.17,1.8  c0.132,1.19,0.358,2.476,0.68,3.854c0.302,1.342,0.756,2.599,1.361,3.77c0.585,1.134,1.294,2.192,2.126,3.175  c0.812,0.945,1.832,1.691,3.061,2.239c1.247,0.548,2.597,0.822,4.053,0.822c1.341,0,2.579-0.227,3.713-0.681  c1.133-0.453,2.088-1.067,2.862-1.841c0.756-0.757,1.437-1.664,2.042-2.723c0.301-0.527,0.571-1.053,0.807-1.573  c0.236-0.52,0.44-1.044,0.61-1.572c0.34-1.039,0.623-2.145,0.85-3.316c0.113-0.586,0.208-1.139,0.283-1.658  c0.075-0.52,0.133-1.007,0.171-1.46c0.037-0.453,0.066-0.897,0.085-1.332c0.018-0.435,0.028-0.869,0.028-1.304  c0-1.096-0.085-2.239-0.255-3.43c-0.17-1.172-0.425-2.428-0.766-3.771c-0.34-1.321-0.821-2.579-1.445-3.77  c-0.643-1.228-1.361-2.305-2.154-3.231c-0.832-0.963-1.833-1.729-3.005-2.296c-1.19-0.565-2.494-0.85-3.911-0.85  c-1.739,0-3.298,0.425-4.677,1.275c-1.399,0.85-2.504,1.908-3.316,3.175c-0.832,1.285-1.513,2.73-2.041,4.336  c-0.548,1.626-0.917,3.128-1.105,4.507c-0.096,0.7-0.166,1.38-0.213,2.041c-0.048,0.661-0.071,1.304-0.071,1.928V150.02z"></path>
<polygon fill="#312783" points="371.644,128.591 399.28,128.591 399.28,133.126 388.056,133.126 388.056,171.221 383.096,171.221   383.096,133.126 371.644,133.126 "></polygon>
<path fill="#312783" d="M400.839,149.85c0-2.136,0.217-4.262,0.651-6.378c0.416-2.06,1.068-4.024,1.956-5.896  c0.888-1.89,1.965-3.524,3.231-4.903c1.266-1.38,2.824-2.485,4.677-3.316c1.813-0.813,3.826-1.219,6.037-1.219  c2.626,0,5.007,0.595,7.143,1.785c2.116,1.19,3.845,2.797,5.188,4.818c1.322,2.022,2.343,4.318,3.061,6.888  c0.718,2.608,1.077,5.339,1.077,8.191c0,1.626-0.113,3.241-0.34,4.848c-0.113,0.813-0.255,1.635-0.425,2.466  c-0.171,0.832-0.379,1.672-0.624,2.522c-0.473,1.682-1.144,3.26-2.013,4.733c-0.831,1.417-1.842,2.721-3.032,3.911  c-1.172,1.172-2.617,2.079-4.337,2.722c-1.758,0.661-3.655,0.992-5.697,0.992c-2.002,0-3.854-0.313-5.556-0.936  c-1.72-0.624-3.165-1.483-4.337-2.579c-1.19-1.096-2.221-2.353-3.089-3.771c-0.87-1.379-1.56-2.938-2.069-4.677  c-0.265-0.85-0.486-1.7-0.666-2.551s-0.336-1.7-0.468-2.551c-0.133-0.851-0.227-1.705-0.283-2.565  c-0.057-0.859-0.085-1.743-0.085-2.65V149.85z M405.912,150.02c0,0.604,0.019,1.204,0.057,1.8c0.038,0.595,0.095,1.195,0.171,1.8  c0.131,1.19,0.358,2.476,0.68,3.854c0.302,1.342,0.755,2.599,1.36,3.77c0.587,1.134,1.294,2.192,2.126,3.175  c0.813,0.945,1.832,1.691,3.061,2.239c1.248,0.548,2.599,0.822,4.054,0.822c1.342,0,2.579-0.227,3.713-0.681  c1.134-0.453,2.088-1.067,2.863-1.841c0.755-0.757,1.437-1.664,2.04-2.723c0.303-0.527,0.571-1.053,0.809-1.573  c0.235-0.52,0.438-1.044,0.609-1.572c0.34-1.039,0.623-2.145,0.85-3.316c0.113-0.586,0.208-1.139,0.284-1.658  c0.075-0.52,0.132-1.007,0.17-1.46c0.037-0.453,0.065-0.897,0.085-1.332c0.019-0.435,0.028-0.869,0.028-1.304  c0-1.096-0.085-2.239-0.255-3.43c-0.17-1.172-0.426-2.428-0.766-3.771c-0.34-1.321-0.822-2.579-1.445-3.77  c-0.643-1.228-1.36-2.305-2.154-3.231c-0.832-0.963-1.833-1.729-3.005-2.296c-1.19-0.565-2.494-0.85-3.911-0.85  c-1.739,0-3.298,0.425-4.677,1.275c-1.398,0.85-2.504,1.908-3.316,3.175c-0.832,1.285-1.512,2.73-2.041,4.336  c-0.548,1.626-0.917,3.128-1.105,4.507c-0.095,0.7-0.165,1.38-0.212,2.041c-0.048,0.661-0.071,1.304-0.071,1.928V150.02z"></path>
<path fill="#312783" d="M441.399,128.591h11.253c2.229,0,4.214,0.227,5.952,0.681c1.757,0.453,3.287,1.172,4.592,2.154  c1.342,1.001,2.361,2.344,3.062,4.024c0.698,1.682,1.05,3.723,1.05,6.122c0,3.988-1.221,7.086-3.658,9.297s-5.688,3.316-9.75,3.316  h-7.597v17.035h-4.818L441.399,128.591z M453.786,149.707c1.53,0,2.947-0.273,4.251-0.821c1.267-0.529,2.315-1.407,3.146-2.637  c0.832-1.228,1.248-2.701,1.248-4.421c0-5.858-2.995-8.787-8.984-8.787h-7.229v16.694L453.786,149.707z"></path>
<path fill="#312783" d="M481.422,128.591h4.988l15.589,42.63h-5.215l-4.139-11.395h-17.687l-4.224,11.395h-4.875L481.422,128.591z   M491.03,155.433l-7.256-19.982l-7.313,19.982H491.03z"></path>
<polygon fill="#312783" points="517.106,148.347 504.38,128.591 510.417,128.591 519.827,144.209 529.152,128.591 534.962,128.591   522.492,147.979 536.353,171.221 530.484,171.221 519.884,152.4 509.255,171.221 503.388,171.221 "></polygon>
<rect x="541.171" y="128.59" fill="#312783" width="4.96" height="42.631"></rect>
<path fill="#312783" d="M298.15,1.144h7.596v26.898c0,6.35,2.579,9.524,7.738,9.524c1.625,0,3.005-0.246,4.139-0.736  c1.095-0.473,1.927-1.182,2.494-2.127c0.585-0.964,0.973-1.955,1.162-2.976c0.207-1.096,0.311-2.343,0.311-3.742l0.029-26.842  l7.483,0.028v26.842c0,1.683-0.142,3.27-0.425,4.763c-0.284,1.492-0.794,2.976-1.531,4.449c-0.737,1.493-1.672,2.76-2.806,3.799  c-1.134,1.039-2.627,1.891-4.479,2.551c-1.87,0.661-3.967,0.992-6.292,0.992c-2.381,0-4.488-0.341-6.32-1.021  c-1.834-0.681-3.307-1.549-4.422-2.607c-1.115-1.039-2.022-2.314-2.721-3.827c-0.719-1.512-1.201-2.994-1.446-4.45  c-0.132-0.736-0.232-1.492-0.298-2.268c-0.066-0.773-0.099-1.587-0.099-2.438L298.15,1.144z"></path>
<path fill="#312783" d="M337.69,1.115h6.377l8.929,14.343c0.378,0.586,0.784,1.224,1.219,1.913c0.434,0.689,0.897,1.432,1.389,2.225  c0.491,0.794,0.907,1.465,1.247,2.013c0.34,0.548,0.604,0.974,0.794,1.276c0.358,0.604,0.84,1.426,1.445,2.465  c0.585,1.059,1.237,2.249,1.956,3.571h0.085c-0.019-1.322-0.028-4.299-0.028-8.929V1.115h7.511v42.63h-6.244  c-3.046-4.875-5.368-8.583-6.967-11.125c-1.599-2.541-2.473-3.944-2.625-4.209c-1.778-2.872-3.296-5.366-4.554-7.483  c-1.259-2.116-2.266-3.883-3.023-5.3h-0.085v3.288v24.829h-7.511L337.69,1.115z"></path>
<rect x="377.543" y="1.115" fill="#312783" width="7.992" height="42.63"></rect>
<path fill="#312783" d="M398.348,1.144c2.438,7.351,4.312,13.006,5.626,16.964c1.313,3.959,2.064,6.231,2.254,6.817  c0.265,0.85,0.566,1.913,0.907,3.188c0.34,1.275,0.708,2.792,1.105,4.549h0.255c0.132-0.453,0.396-1.322,0.794-2.607  c0.396-1.284,0.925-3.004,1.587-5.158l7.852-23.781h7.766l-14.568,42.631h-6.944L390.298,1.115L398.348,1.144z"></path>
<polygon fill="#312783" points="431.227,1.115 459.032,1.115 458.607,8.003 438.737,8.003 438.737,18.717 456.34,18.717   455.886,25.406 438.737,25.406 438.737,36.688 459.259,36.688 458.862,43.745 431.227,43.745 "></polygon>
<path fill="#312783" d="M466.203,1.144h13.095c2.306,0,4.347,0.236,6.123,0.709c1.852,0.491,3.486,1.237,4.903,2.239  s2.532,2.381,3.345,4.138c0.793,1.739,1.19,3.799,1.19,6.18c0,2.702-0.662,5.055-1.984,7.058c-1.323,2.003-3.165,3.515-5.527,4.535  l11.31,17.743h-9.127l-9.552-16.553H473.8v16.553h-7.568L466.203,1.144z M480.403,20.645c1.946,0,3.581-0.557,4.903-1.672  c1.305-1.096,1.956-2.542,1.956-4.337c0-2.192-0.604-3.864-1.813-5.018c-1.229-1.171-3.023-1.757-5.386-1.757h-6.292v12.783H480.403  z"></path>
<path fill="#312783" d="M506.282,32.634c1.322,1.833,2.769,3.146,4.337,3.94c1.549,0.793,3.353,1.19,5.414,1.19  c2.04,0,3.618-0.52,4.733-1.56c1.134-1.038,1.7-2.512,1.7-4.421c0-1.72-0.906-3.062-2.721-4.025  c-0.699-0.378-1.729-0.803-3.09-1.274c-0.208-0.058-0.746-0.228-1.615-0.511c-0.435-0.151-0.822-0.278-1.162-0.383  c-0.34-0.103-0.634-0.193-0.879-0.269c-1.19-0.359-2.211-0.729-3.062-1.106c-0.435-0.188-0.883-0.411-1.346-0.666  c-0.464-0.255-0.94-0.553-1.432-0.893c-1.021-0.699-1.833-1.437-2.438-2.211c-0.605-0.774-1.125-1.794-1.559-3.062  c-0.416-1.228-0.624-2.617-0.624-4.166c0-3.816,1.2-6.869,3.6-9.155c2.419-2.306,5.574-3.458,9.467-3.458  c5.764,0,10.299,2.522,13.605,7.567l-5.697,3.997c-2.192-3.118-4.856-4.677-7.993-4.677c-1.682,0-2.985,0.539-3.911,1.616  c-0.945,1.098-1.417,2.497-1.417,4.198c0,1.723,0.906,3.017,2.721,3.888c0.774,0.416,1.795,0.803,3.062,1.162  c0.227,0.075,0.51,0.16,0.85,0.256c0.341,0.094,0.728,0.208,1.162,0.34c0.869,0.265,1.437,0.435,1.701,0.511  c0.491,0.151,0.944,0.298,1.36,0.44c0.415,0.141,0.813,0.287,1.19,0.438c0.699,0.265,1.502,0.634,2.409,1.106  c0.831,0.435,1.578,0.964,2.238,1.588c0.322,0.304,0.625,0.629,0.908,0.979c0.283,0.35,0.557,0.723,0.822,1.119  c0.528,0.776,0.936,1.712,1.219,2.81c0.283,1.077,0.424,2.269,0.424,3.573c0,2.743-0.623,5.106-1.87,7.093  c-1.247,1.966-2.947,3.45-5.102,4.452c-2.136,0.983-4.602,1.476-7.397,1.476c-6.633,0-11.754-2.74-15.363-8.219L506.282,32.634z"></path>
<rect x="536.78" y="1.115" fill="#312783" width="7.993" height="42.63"></rect>
<path fill="#312783" d="M553.674,1.229h10.317c2.834,0,5.395,0.236,7.682,0.709c2.286,0.473,4.421,1.257,6.404,2.353  c1.947,1.059,3.601,2.419,4.961,4.081c1.342,1.626,2.399,3.667,3.175,6.123c0.756,2.399,1.134,5.168,1.134,8.305  c0,3.987-0.794,7.566-2.381,10.742c-1.587,3.175-3.864,5.669-6.831,7.483c-2.985,1.813-6.415,2.721-10.289,2.721h-14.144  L553.674,1.229z M566.599,36.801c1.568,0,3.09-0.293,4.563-0.879c1.531-0.604,2.921-1.436,4.168-2.494  c1.284-1.096,2.324-2.513,3.117-4.252c0.794-1.757,1.19-3.703,1.19-5.839c0-5.271-1.275-9.099-3.826-11.479  s-6.415-3.571-11.593-3.571h-2.947v28.515H566.599z"></path>
<path fill="#312783" d="M604.948,1.115h6.916l16.128,42.63h-8.333l-3.486-9.24h-16.27l-3.458,9.24h-7.682L604.948,1.115z   M613.934,27.702c-1.247-3.609-2.354-6.85-3.316-9.722c-0.964-2.872-1.786-5.404-2.466-7.597h-0.085  c-0.208,0.699-0.483,1.578-0.822,2.636c-0.34,1.059-0.756,2.315-1.248,3.771c-0.49,1.455-0.948,2.815-1.375,4.081  c-0.424,1.268-0.825,2.447-1.204,3.543l-1.133,3.288H613.934z"></path>
<path fill="#312783" d="M632.499,1.229h10.317c2.834,0,5.395,0.236,7.682,0.709c2.286,0.473,4.421,1.257,6.404,2.353  c1.947,1.059,3.601,2.419,4.96,4.081c1.343,1.626,2.4,3.667,3.176,6.123c0.756,2.399,1.134,5.168,1.134,8.305  c0,3.987-0.794,7.566-2.381,10.742c-1.587,3.175-3.864,5.669-6.831,7.483c-2.985,1.813-6.415,2.721-10.289,2.721h-14.144  L632.499,1.229z M645.424,36.801c1.568,0,3.09-0.293,4.563-0.879c1.53-0.604,2.92-1.436,4.166-2.494  c1.285-1.096,2.325-2.513,3.118-4.252c0.794-1.757,1.19-3.703,1.19-5.839c0-5.271-1.275-9.099-3.826-11.479  s-6.415-3.571-11.593-3.571h-2.947v28.515H645.424z"></path>
</svg>
